<svg width="90" height="160" viewBox="0 0 90 160" fill="none" xmlns="http://www.w3.org/2000/svg">
<g filter="url(#filter0_d_64_228)">
<rect x="20" y="20" width="50" height="50" rx="25" fill="#EAF6FF"/>
<path d="M28 32V36.2637L45.0548 44.7911L62.1097 36.2637V32H28ZM28 40.5274V57.5823H62.1097V40.5274L45.0548 49.0548L28 40.5274Z" fill="#232528"/>
</g>
<g filter="url(#filter1_d_64_228)">
<rect x="20" y="90" width="50" height="50" rx="25" fill="#232528"/>
<path d="M28 102V106.264L45.0548 114.791L62.1097 106.264V102H28ZM28 110.527V127.582H62.1097V110.527L45.0548 119.055L28 110.527Z" fill="#EAF6FF"/>
</g>
<rect x="0.5" y="0.5" width="89" height="159" rx="4.5" stroke="#9747FF" stroke-dasharray="10 5"/>
<defs>
<filter id="filter0_d_64_228" x="16" y="20" width="58" height="58" filterUnits="userSpaceOnUse" color-interpolation-filters="sRGB">
<feFlood flood-opacity="0" result="BackgroundImageFix"/>
<feColorMatrix in="SourceAlpha" type="matrix" values="0 0 0 0 0 0 0 0 0 0 0 0 0 0 0 0 0 0 127 0" result="hardAlpha"/>
<feOffset dy="4"/>
<feGaussianBlur stdDeviation="2"/>
<feComposite in2="hardAlpha" operator="out"/>
<feColorMatrix type="matrix" values="0 0 0 0 0 0 0 0 0 0 0 0 0 0 0 0 0 0 0.25 0"/>
<feBlend mode="normal" in2="BackgroundImageFix" result="effect1_dropShadow_64_228"/>
<feBlend mode="normal" in="SourceGraphic" in2="effect1_dropShadow_64_228" result="shape"/>
</filter>
<filter id="filter1_d_64_228" x="16" y="90" width="58" height="58" filterUnits="userSpaceOnUse" color-interpolation-filters="sRGB">
<feFlood flood-opacity="0" result="BackgroundImageFix"/>
<feColorMatrix in="SourceAlpha" type="matrix" values="0 0 0 0 0 0 0 0 0 0 0 0 0 0 0 0 0 0 127 0" result="hardAlpha"/>
<feOffset dy="4"/>
<feGaussianBlur stdDeviation="2"/>
<feComposite in2="hardAlpha" operator="out"/>
<feColorMatrix type="matrix" values="0 0 0 0 0 0 0 0 0 0 0 0 0 0 0 0 0 0 0.25 0"/>
<feBlend mode="normal" in2="BackgroundImageFix" result="effect1_dropShadow_64_228"/>
<feBlend mode="normal" in="SourceGraphic" in2="effect1_dropShadow_64_228" result="shape"/>
</filter>
</defs>
</svg>
