<svg width="90" height="160" viewBox="0 0 90 160" fill="none" xmlns="http://www.w3.org/2000/svg">
<g filter="url(#filter0_d_31_260)">
<rect x="20" y="20" width="50" height="50" rx="25" fill="#EAF6FF"/>
<path d="M52.5 30L48.75 33.75L56.25 41.25L60 37.5L52.5 30ZM45 37.5L30 52.5V60H37.5L52.5 45L45 37.5Z" fill="#232528"/>
</g>
<g filter="url(#filter1_d_31_260)">
<rect x="20" y="90" width="50" height="50" rx="25" fill="#232528"/>
<path d="M52.5 100L48.75 103.75L56.25 111.25L60 107.5L52.5 100ZM45 107.5L30 122.5V130H37.5L52.5 115L45 107.5Z" fill="#EAF6FF"/>
</g>
<rect x="0.5" y="0.5" width="89" height="159" rx="4.5" stroke="#9747FF" stroke-dasharray="10 5"/>
<defs>
<filter id="filter0_d_31_260" x="16" y="20" width="58" height="58" filterUnits="userSpaceOnUse" color-interpolation-filters="sRGB">
<feFlood flood-opacity="0" result="BackgroundImageFix"/>
<feColorMatrix in="SourceAlpha" type="matrix" values="0 0 0 0 0 0 0 0 0 0 0 0 0 0 0 0 0 0 127 0" result="hardAlpha"/>
<feOffset dy="4"/>
<feGaussianBlur stdDeviation="2"/>
<feComposite in2="hardAlpha" operator="out"/>
<feColorMatrix type="matrix" values="0 0 0 0 0 0 0 0 0 0 0 0 0 0 0 0 0 0 0.25 0"/>
<feBlend mode="normal" in2="BackgroundImageFix" result="effect1_dropShadow_31_260"/>
<feBlend mode="normal" in="SourceGraphic" in2="effect1_dropShadow_31_260" result="shape"/>
</filter>
<filter id="filter1_d_31_260" x="16" y="90" width="58" height="58" filterUnits="userSpaceOnUse" color-interpolation-filters="sRGB">
<feFlood flood-opacity="0" result="BackgroundImageFix"/>
<feColorMatrix in="SourceAlpha" type="matrix" values="0 0 0 0 0 0 0 0 0 0 0 0 0 0 0 0 0 0 127 0" result="hardAlpha"/>
<feOffset dy="4"/>
<feGaussianBlur stdDeviation="2"/>
<feComposite in2="hardAlpha" operator="out"/>
<feColorMatrix type="matrix" values="0 0 0 0 0 0 0 0 0 0 0 0 0 0 0 0 0 0 0.25 0"/>
<feBlend mode="normal" in2="BackgroundImageFix" result="effect1_dropShadow_31_260"/>
<feBlend mode="normal" in="SourceGraphic" in2="effect1_dropShadow_31_260" result="shape"/>
</filter>
</defs>
</svg>
