<svg width="90" height="160" viewBox="0 0 90 160" fill="none" xmlns="http://www.w3.org/2000/svg">
<g filter="url(#filter0_d_40_211)">
<rect x="20" y="20" width="50" height="50" rx="25" fill="#EAF6FF"/>
<path d="M34.5 27V32H52V57H34.5V62H56.375V27H34.5ZM38.875 37V42H31V47H38.875V52L47.625 44.5L38.875 37Z" fill="#232528"/>
</g>
<g filter="url(#filter1_d_40_211)">
<rect x="20" y="90" width="50" height="50" rx="25" fill="#232528"/>
<path d="M34.5 97V102H52V127H34.5V132H56.375V97H34.5ZM38.875 107V112H31V117H38.875V122L47.625 114.5L38.875 107Z" fill="#EAF6FF"/>
</g>
<rect x="0.5" y="0.5" width="89" height="159" rx="4.5" stroke="#9747FF" stroke-dasharray="10 5"/>
<defs>
<filter id="filter0_d_40_211" x="16" y="20" width="58" height="58" filterUnits="userSpaceOnUse" color-interpolation-filters="sRGB">
<feFlood flood-opacity="0" result="BackgroundImageFix"/>
<feColorMatrix in="SourceAlpha" type="matrix" values="0 0 0 0 0 0 0 0 0 0 0 0 0 0 0 0 0 0 127 0" result="hardAlpha"/>
<feOffset dy="4"/>
<feGaussianBlur stdDeviation="2"/>
<feComposite in2="hardAlpha" operator="out"/>
<feColorMatrix type="matrix" values="0 0 0 0 0 0 0 0 0 0 0 0 0 0 0 0 0 0 0.25 0"/>
<feBlend mode="normal" in2="BackgroundImageFix" result="effect1_dropShadow_40_211"/>
<feBlend mode="normal" in="SourceGraphic" in2="effect1_dropShadow_40_211" result="shape"/>
</filter>
<filter id="filter1_d_40_211" x="16" y="90" width="58" height="58" filterUnits="userSpaceOnUse" color-interpolation-filters="sRGB">
<feFlood flood-opacity="0" result="BackgroundImageFix"/>
<feColorMatrix in="SourceAlpha" type="matrix" values="0 0 0 0 0 0 0 0 0 0 0 0 0 0 0 0 0 0 127 0" result="hardAlpha"/>
<feOffset dy="4"/>
<feGaussianBlur stdDeviation="2"/>
<feComposite in2="hardAlpha" operator="out"/>
<feColorMatrix type="matrix" values="0 0 0 0 0 0 0 0 0 0 0 0 0 0 0 0 0 0 0.25 0"/>
<feBlend mode="normal" in2="BackgroundImageFix" result="effect1_dropShadow_40_211"/>
<feBlend mode="normal" in="SourceGraphic" in2="effect1_dropShadow_40_211" result="shape"/>
</filter>
</defs>
</svg>
