<svg width="90" height="160" viewBox="0 0 90 160" fill="none" xmlns="http://www.w3.org/2000/svg">
<g clip-path="url(#clip0_14_137)">
<rect x="20" y="20" width="50" height="50" rx="25" fill="#EAF6FF"/>
<path d="M44.8 27C39.355 27 34.9 33.048 34.9 40.5C34.9 47.952 39.355 54 44.8 54C50.245 54 54.7 47.952 54.7 40.5C54.7 33.048 50.245 27 44.8 27ZM34.4545 54C29.2075 54.27 25 58.968 25 64.8V70.2H64.6V64.8C64.6 58.968 60.442 54.27 55.1455 54C52.4725 57.294 48.8095 59.4 44.8 59.4C40.7905 59.4 37.1275 57.294 34.4545 54Z" fill="#E55454"/>
</g>
<g clip-path="url(#clip1_14_137)">
<rect x="20" y="90" width="50" height="50" rx="25" fill="#232528"/>
<path d="M44.8 97C39.355 97 34.9 103.048 34.9 110.5C34.9 117.952 39.355 124 44.8 124C50.245 124 54.7 117.952 54.7 110.5C54.7 103.048 50.245 97 44.8 97ZM34.4545 124C29.2075 124.27 25 128.968 25 134.8V140.2H64.6V134.8C64.6 128.968 60.442 124.27 55.1455 124C52.4725 127.294 48.8095 129.4 44.8 129.4C40.7905 129.4 37.1275 127.294 34.4545 124Z" fill="#E55454"/>
</g>
<rect x="0.5" y="0.5" width="89" height="159" rx="4.5" stroke="#9747FF" stroke-dasharray="10 5"/>
<defs>
<clipPath id="clip0_14_137">
<rect x="20" y="20" width="50" height="50" rx="25" fill="white"/>
</clipPath>
<clipPath id="clip1_14_137">
<rect x="20" y="90" width="50" height="50" rx="25" fill="white"/>
</clipPath>
</defs>
</svg>
