<svg width="90" height="160" viewBox="0 0 90 160" fill="none" xmlns="http://www.w3.org/2000/svg">
<g filter="url(#filter0_d_34_329)">
<rect x="20" y="20" width="50" height="50" rx="25" fill="#EAF6FF"/>
<path d="M47.5 25C41.45 25 36.15 29.3 35 35C29.5 35 25 39.5 25 45C25 46.85 25.55 48.55 26.4 50H37.5L47.5 40L57.5 50H64.55C64.85 49.2 65 48.4 65 47.5C65 44.25 62.9 41.05 60 40V37.5C60 30.6 54.4 25 47.5 25ZM47.5 47.5L35 60H45V62.5C45 63.163 45.2634 63.7989 45.7322 64.2678C46.2011 64.7366 46.837 65 47.5 65C48.163 65 48.7989 64.7366 49.2678 64.2678C49.7366 63.7989 50 63.163 50 62.5V60H60L47.5 47.5Z" fill="#232528"/>
</g>
<g filter="url(#filter1_d_34_329)">
<rect x="20" y="90" width="50" height="50" rx="25" fill="#232528"/>
<path d="M47.5 95C41.45 95 36.15 99.3 35 105C29.5 105 25 109.5 25 115C25 116.85 25.55 118.55 26.4 120H37.5L47.5 110L57.5 120H64.55C64.85 119.2 65 118.4 65 117.5C65 114.25 62.9 111.05 60 110V107.5C60 100.6 54.4 95 47.5 95ZM47.5 117.5L35 130H45V132.5C45 133.163 45.2634 133.799 45.7322 134.268C46.2011 134.737 46.837 135 47.5 135C48.163 135 48.7989 134.737 49.2678 134.268C49.7366 133.799 50 133.163 50 132.5V130H60L47.5 117.5Z" fill="#EAF6FF"/>
</g>
<rect x="0.5" y="0.5" width="89" height="159" rx="4.5" stroke="#9747FF" stroke-dasharray="10 5"/>
<defs>
<filter id="filter0_d_34_329" x="16" y="20" width="58" height="58" filterUnits="userSpaceOnUse" color-interpolation-filters="sRGB">
<feFlood flood-opacity="0" result="BackgroundImageFix"/>
<feColorMatrix in="SourceAlpha" type="matrix" values="0 0 0 0 0 0 0 0 0 0 0 0 0 0 0 0 0 0 127 0" result="hardAlpha"/>
<feOffset dy="4"/>
<feGaussianBlur stdDeviation="2"/>
<feComposite in2="hardAlpha" operator="out"/>
<feColorMatrix type="matrix" values="0 0 0 0 0 0 0 0 0 0 0 0 0 0 0 0 0 0 0.25 0"/>
<feBlend mode="normal" in2="BackgroundImageFix" result="effect1_dropShadow_34_329"/>
<feBlend mode="normal" in="SourceGraphic" in2="effect1_dropShadow_34_329" result="shape"/>
</filter>
<filter id="filter1_d_34_329" x="16" y="90" width="58" height="58" filterUnits="userSpaceOnUse" color-interpolation-filters="sRGB">
<feFlood flood-opacity="0" result="BackgroundImageFix"/>
<feColorMatrix in="SourceAlpha" type="matrix" values="0 0 0 0 0 0 0 0 0 0 0 0 0 0 0 0 0 0 127 0" result="hardAlpha"/>
<feOffset dy="4"/>
<feGaussianBlur stdDeviation="2"/>
<feComposite in2="hardAlpha" operator="out"/>
<feColorMatrix type="matrix" values="0 0 0 0 0 0 0 0 0 0 0 0 0 0 0 0 0 0 0.25 0"/>
<feBlend mode="normal" in2="BackgroundImageFix" result="effect1_dropShadow_34_329"/>
<feBlend mode="normal" in="SourceGraphic" in2="effect1_dropShadow_34_329" result="shape"/>
</filter>
</defs>
</svg>
