<svg width="90" height="160" viewBox="0 0 90 160" fill="none" xmlns="http://www.w3.org/2000/svg">
<g filter="url(#filter0_d_64_241)">
<rect x="20" y="20" width="50" height="50" rx="25" fill="#EAF6FF"/>
<path d="M40.4758 24.0471C31.3906 24.0471 24 31.4377 24 40.5229C24 49.6082 31.3906 56.9987 40.4758 56.9987C43.2532 56.9987 45.9835 56.3397 48.2901 55.0687C48.4749 55.2911 48.6797 55.4959 48.9021 55.6807L53.6094 60.3881C54.0441 60.8772 54.5742 61.2723 55.167 61.5491C55.7599 61.8259 56.4031 61.9787 57.0572 61.9979C57.7112 62.0172 58.3623 61.9025 58.9705 61.6611C59.5786 61.4196 60.131 61.0563 60.5937 60.5937C61.0564 60.131 61.4196 59.5786 61.6611 58.9705C61.9025 58.3623 62.0172 57.7112 61.9979 57.0572C61.9787 56.4031 61.8259 55.7599 61.5491 55.167C61.2723 54.5742 60.8772 54.0441 60.3881 53.6094L55.6807 48.9021C55.4514 48.6727 55.199 48.4676 54.9275 48.2901C56.1985 45.9835 56.9988 43.3003 56.9988 40.4758C56.9988 31.3906 49.6082 24 40.5229 24L40.4758 24.0471ZM40.4758 28.7545C47.0191 28.7545 52.2443 33.9796 52.2443 40.5229C52.2443 43.6298 51.1145 46.5013 49.1374 48.6196C49.0904 48.6667 49.0433 48.7138 48.9962 48.7608C48.7739 48.9456 48.569 49.1504 48.3842 49.3728C46.313 51.2557 43.4886 52.3384 40.4288 52.3384C33.8855 52.3384 28.6603 47.1132 28.6603 40.57C28.6603 34.0267 33.8855 28.8015 40.4288 28.8015L40.4758 28.7545Z" fill="#232528"/>
</g>
<g filter="url(#filter1_d_64_241)">
<rect x="20" y="90" width="50" height="50" rx="25" fill="#232528"/>
<path d="M40.4758 94.0471C31.3906 94.0471 24 101.438 24 110.523C24 119.608 31.3906 126.999 40.4758 126.999C43.2532 126.999 45.9835 126.34 48.2901 125.069C48.4749 125.291 48.6797 125.496 48.9021 125.681L53.6094 130.388C54.0441 130.877 54.5742 131.272 55.167 131.549C55.7599 131.826 56.4031 131.979 57.0572 131.998C57.7112 132.017 58.3623 131.903 58.9705 131.661C59.5786 131.42 60.131 131.056 60.5937 130.594C61.0564 130.131 61.4196 129.579 61.6611 128.97C61.9025 128.362 62.0172 127.711 61.9979 127.057C61.9787 126.403 61.8259 125.76 61.5491 125.167C61.2723 124.574 60.8772 124.044 60.3881 123.609L55.6807 118.902C55.4514 118.673 55.199 118.468 54.9275 118.29C56.1985 115.983 56.9988 113.3 56.9988 110.476C56.9988 101.391 49.6082 94 40.5229 94L40.4758 94.0471ZM40.4758 98.7545C47.0191 98.7545 52.2443 103.98 52.2443 110.523C52.2443 113.63 51.1145 116.501 49.1374 118.62C49.0904 118.667 49.0433 118.714 48.9962 118.761C48.7739 118.946 48.569 119.15 48.3842 119.373C46.313 121.256 43.4886 122.338 40.4288 122.338C33.8855 122.338 28.6603 117.113 28.6603 110.57C28.6603 104.027 33.8855 98.8015 40.4288 98.8015L40.4758 98.7545Z" fill="#EAF6FF"/>
</g>
<rect x="0.5" y="0.5" width="89" height="159" rx="4.5" stroke="#9747FF" stroke-dasharray="10 5"/>
<defs>
<filter id="filter0_d_64_241" x="16" y="20" width="58" height="58" filterUnits="userSpaceOnUse" color-interpolation-filters="sRGB">
<feFlood flood-opacity="0" result="BackgroundImageFix"/>
<feColorMatrix in="SourceAlpha" type="matrix" values="0 0 0 0 0 0 0 0 0 0 0 0 0 0 0 0 0 0 127 0" result="hardAlpha"/>
<feOffset dy="4"/>
<feGaussianBlur stdDeviation="2"/>
<feComposite in2="hardAlpha" operator="out"/>
<feColorMatrix type="matrix" values="0 0 0 0 0 0 0 0 0 0 0 0 0 0 0 0 0 0 0.25 0"/>
<feBlend mode="normal" in2="BackgroundImageFix" result="effect1_dropShadow_64_241"/>
<feBlend mode="normal" in="SourceGraphic" in2="effect1_dropShadow_64_241" result="shape"/>
</filter>
<filter id="filter1_d_64_241" x="16" y="90" width="58" height="58" filterUnits="userSpaceOnUse" color-interpolation-filters="sRGB">
<feFlood flood-opacity="0" result="BackgroundImageFix"/>
<feColorMatrix in="SourceAlpha" type="matrix" values="0 0 0 0 0 0 0 0 0 0 0 0 0 0 0 0 0 0 127 0" result="hardAlpha"/>
<feOffset dy="4"/>
<feGaussianBlur stdDeviation="2"/>
<feComposite in2="hardAlpha" operator="out"/>
<feColorMatrix type="matrix" values="0 0 0 0 0 0 0 0 0 0 0 0 0 0 0 0 0 0 0.25 0"/>
<feBlend mode="normal" in2="BackgroundImageFix" result="effect1_dropShadow_64_241"/>
<feBlend mode="normal" in="SourceGraphic" in2="effect1_dropShadow_64_241" result="shape"/>
</filter>
</defs>
</svg>
